<?xml version="1.0" encoding="UTF-8"?>
<!DOCTYPE svg PUBLIC "-//W3C//DTD SVG 1.1//EN" "http://www.w3.org/Graphics/SVG/1.1/DTD/svg11.dtd">
<svg version="1.1" xmlns="http://www.w3.org/2000/svg" xmlns:xlink="http://www.w3.org/1999/xlink" x="0" y="0" width="194" height="48" viewBox="0, 0, 4850, 1200" preserveAspectRatio="xMidYMid meet">
  <g id="Banner">
    <g id="Banner">
      <path d="M0,-0 L4850,-0 L4850,1200 L0,1200 L0,-0 z" fill="#FFFFFF"/>
      <path d="M4850,0 L4850,1200 L0,1200 L0,0 L4850,0 z M4810,40 L40,40 L40,1160 L4810,1160 L4810,40 z" fill="#DDDDDD"/>
    </g>
    <g id="Icon">
      <path d="M313.681,100.5 L887.319,100.5 C1005.056,100.5 1100.5,196.413 1100.5,314.728 L1100.5,886.272 C1100.5,1004.587 1005.056,1100.5 887.319,1100.5 L313.681,1100.5 C195.944,1100.5 100.5,1004.587 100.5,886.272 L100.5,314.728 C100.5,196.413 195.944,100.5 313.681,100.5 z" fill="#E6E6E6"/>
      <path d="M313.681,100.5 L887.319,100.5 C1005.056,100.5 1100.5,196.413 1100.5,314.728 L1100.5,886.272 C1100.5,1004.587 1005.056,1100.5 887.319,1100.5 L313.681,1100.5 C195.944,1100.5 100.5,1004.587 100.5,886.272 L100.5,314.728 C100.5,196.413 195.944,100.5 313.681,100.5 z" fill-opacity="0" stroke="#000000" stroke-width="1"/>
    </g>
    <g id="Icon_Text">
      <path d="M360.44,620.496 Q395,632.016 405.752,641.616 Q412.664,648.144 412.664,655.056 Q412.664,668.496 403.832,668.496 Q400.376,668.496 394.232,659.664 Q385.4,644.304 357.368,626.64 z M262.904,651.984 L271.736,651.984 Q271.736,663.888 271.352,673.104 L522.488,673.104 Q525.176,671.568 527.864,667.344 Q533.624,662.736 534.392,662.736 Q539,662.736 550.904,672.336 Q562.808,683.088 562.808,686.544 Q562.808,690.768 551.672,691.536 Q542.84,693.072 540.152,694.224 L511.736,716.496 L508.664,711.888 Q515.576,701.904 523.64,683.472 L270.584,683.472 Q268.664,697.68 265.976,705.744 Q262.136,718.8 253.688,726.096 Q247.16,731.472 241.784,731.472 Q231.8,730.704 231.416,724.176 Q231.416,719.952 239.096,712.272 Q250.232,702.288 255.608,689.616 Q261.368,679.248 262.904,651.984 z M265.976,721.104 Q279.032,724.176 304.76,724.176 L474.488,724.176 Q478.712,719.568 482.552,714.192 Q486.776,709.2 489.464,709.2 Q492.152,709.2 500.984,717.264 Q511.736,726.864 511.736,728.4 Q511.736,734.544 504.44,734.544 L406.904,734.544 Q391.928,746.832 376.952,756.048 Q397.304,773.712 407.288,792.528 Q413.432,803.28 417.272,815.184 Q450.68,798.672 464.888,786.384 Q480.632,776.4 495.224,752.592 Q506.36,757.968 516.728,762.96 Q522.488,766.032 522.488,769.104 Q522.488,771.792 517.88,772.944 Q501.752,772.944 501.368,775.248 Q480.632,792.912 448.376,808.272 Q457.208,833.232 471.8,853.2 Q486.392,872.016 509.432,890.448 Q532.088,908.88 564.344,919.248 L564.344,925.008 Q552.056,925.008 546.68,931.152 Q542.456,935.76 541.688,935.76 Q538.232,935.76 521.336,923.088 Q505.976,913.104 491,896.208 Q476.792,882.384 464.888,863.952 Q451.832,843.6 441.848,811.344 Q430.712,816.336 418.808,820.944 Q420.728,826.32 421.496,831.312 Q424.952,850.896 424.952,873.936 Q424.952,908.496 416.12,931.536 Q410.744,947.28 398.84,956.88 Q387.704,965.712 379.64,965.712 Q377.336,965.712 373.88,959.568 Q369.272,951.12 331.64,943.056 L333.176,935.76 Q367.736,939.984 382.712,939.984 Q387.704,939.984 392.696,935.76 Q398.84,930 402.68,915.408 Q408.44,899.28 408.44,873.936 Q408.44,858.96 407.288,845.52 Q370.808,883.92 339.32,901.2 Q294.008,928.08 229.88,946.128 L226.808,938.448 Q290.552,918.48 335.48,887.76 Q367.352,867.024 404.216,822.48 Q401.912,809.424 396.536,797.904 Q357.368,827.088 320.12,843.984 Q282.872,862.032 235.64,875.472 L232.952,871.248 Q277.88,855.504 313.976,835.152 Q350.072,815.568 388.088,781.392 Q381.176,770.64 371.192,759.504 Q356.216,768.336 341.24,774.864 Q297.848,794.448 244.856,806.736 L241.784,799.056 Q287.864,787.92 325.496,770.256 Q355.064,756.816 381.56,734.544 L304.76,734.544 Q280.952,734.544 271.736,737.616 z" fill="#383838"/>
      <path d="M226.808,248.128 Q239.864,251.2 265.976,251.2 L520.952,251.2 Q526.328,245.056 530.552,238.144 Q535.928,231.616 539,231.616 Q542.072,231.616 553.208,241.984 Q565.88,253.504 565.88,255.424 Q565.88,261.568 558.2,261.568 L407.672,261.568 Q394.616,295.36 375.416,324.544 L492.152,324.544 Q494.456,322.24 497.912,318.016 Q502.904,312.64 504.44,312.64 Q507.128,312.64 516.344,321.472 Q525.176,329.152 525.176,332.224 Q525.176,334.912 517.88,338.752 Q510.2,343.36 510.2,345.664 L510.2,469.696 Q510.2,498.88 513.272,540.736 Q513.272,545.728 505.976,548.032 Q499.832,549.568 496.76,549.568 Q492.152,549.568 492.152,540.736 Q492.536,531.136 492.92,519.616 L297.464,519.616 L297.464,522.688 L299,544.96 Q299,549.568 290.936,551.104 Q285.944,552.64 283.64,552.64 Q279.416,552.64 279.416,544.96 L280.952,522.688 L280.952,348.736 Q280.952,328.384 276.344,311.104 Q288.248,315.328 298.232,324.544 L368.12,324.544 Q381.56,292.288 387.704,261.568 L265.976,261.568 Q241.784,261.568 232.952,264.64 z M297.464,509.248 L493.304,509.248 Q493.688,491.2 493.688,469.696 L493.688,422.08 L297.464,422.08 z M297.464,411.712 L493.688,411.712 L493.688,334.912 L297.464,334.912 z" fill="#383838"/>
      <path d="M682.904,644.688 Q716.312,648.912 753.176,648.912 L913.688,648.912 Q918.296,645.072 921.752,640.08 Q926.744,637.008 927.128,637.008 Q930.2,637.008 945.176,652.368 Q957.464,664.656 957.464,668.496 Q957.464,673.104 930.2,673.104 Q892.952,697.68 834.968,729.936 Q837.272,731.088 837.272,733.008 Q837.272,735.696 826.904,738.384 Q820.76,740.688 820.76,743.76 L820.76,785.616 L934.808,785.616 Q940.568,779.088 945.176,771.792 Q950.936,764.496 954.392,764.496 Q958.232,764.496 970.136,775.632 Q984.344,787.536 984.344,790.224 Q984.344,795.984 975.128,795.984 L820.76,795.984 L820.76,928.08 Q820.76,943.44 811.928,953.424 Q800.024,965.712 789.272,965.712 Q786.584,965.712 783.896,956.496 Q780.44,945.744 732.44,939.984 L732.44,934.224 Q760.088,935.76 793.88,935.76 Q802.712,935.76 802.712,928.08 L802.712,795.984 L682.904,795.984 Q658.712,795.984 649.88,799.056 L643.736,782.544 Q656.792,785.616 682.904,785.616 L802.712,785.616 L802.712,769.104 Q802.712,737.232 799.64,721.104 Q819.992,725.328 824.216,726.48 Q869.144,701.136 915.224,659.664 L753.176,659.664 Q710.936,659.664 690.2,662.736 z" fill="#383838"/>
      <path d="M685.976,213.568 Q708.632,229.696 719,241.6 Q727.832,253.12 727.832,260.032 Q727.832,267.712 725.912,271.168 Q722.456,275.008 719,275.008 Q712.472,275.008 709.784,267.712 Q704.024,249.664 699.032,241.216 Q694.04,232 681.368,218.176 z M637.976,281.152 Q651.032,284.224 676.76,284.224 L747.416,284.224 Q751.64,279.232 755.48,274.24 Q759.704,269.248 762.392,269.248 Q765.08,269.248 774.296,277.312 Q784.664,286.528 784.664,288.448 Q784.664,294.592 777.368,294.592 L676.76,294.592 Q652.952,294.592 643.736,297.664 z M652.952,334.912 Q666.008,337.984 691.736,337.984 L736.664,337.984 Q740.888,333.76 743.96,329.152 Q748.184,324.544 750.488,324.544 Q752.792,324.544 761.24,332.224 Q771.224,341.056 771.224,342.592 Q771.224,348.736 765.464,348.736 L691.736,348.736 Q667.928,348.736 658.712,351.424 z M655.64,385.984 Q669.08,389.056 694.808,389.056 L736.664,389.056 Q740.888,384.832 743.96,380.224 Q748.184,375.616 750.488,375.616 Q752.792,375.616 761.24,383.296 Q771.224,391.744 771.224,393.664 Q771.224,399.424 765.464,399.424 L694.808,399.424 Q671,399.424 661.784,402.496 z M661.784,430.912 Q673.688,435.136 682.904,443.2 L742.808,443.2 Q743.192,443.2 747.8,437.824 Q752.792,432.448 754.712,432.448 Q757.784,432.448 767,441.28 Q774.296,448.576 774.296,450.496 Q774.296,452.416 767.384,456.64 Q762.392,460.48 762.392,462.4 Q762.392,506.944 763.928,546.496 Q763.928,549.184 758.936,551.104 Q755.48,552.256 754.712,552.64 Q747.416,552.64 747.416,546.496 L747.416,529.984 L680.216,529.984 L681.368,546.496 Q681.368,550.72 674.072,552.64 Q669.848,554.176 667.928,554.176 Q663.32,554.176 663.32,546.496 L664.856,526.912 L664.856,465.472 Q664.856,446.656 661.784,430.912 z M679.832,519.616 L747.416,519.616 L747.416,453.568 L679.832,453.568 z M786.2,269.248 Q799.256,271.936 825.368,271.936 L850.712,271.936 L850.712,270.4 Q850.712,236.224 847.64,216.64 Q863.768,219.712 874.136,221.632 Q883.736,223.168 883.736,227.008 Q883.736,230.08 874.136,233.152 Q867.224,235.072 867.224,240.448 L867.224,271.936 L891.416,271.936 Q894.872,268.48 897.944,264.256 Q901.4,260.032 903.32,260.032 Q905.624,260.032 913.688,266.944 Q922.904,275.008 922.904,276.544 Q922.904,282.688 916.76,282.688 L867.224,282.688 L867.224,339.52 L884.12,339.52 Q886.04,337.984 887.576,336.064 Q920.984,300.352 948.248,241.984 Q962.84,247.744 975.512,253.888 Q979.736,255.424 979.736,258.496 Q979.736,261.568 974.744,262.336 Q958.232,263.872 955.928,266.176 Q928.28,312.256 903.704,339.52 L943.64,339.52 Q948.632,333.76 952.856,327.616 Q957.464,321.472 960.152,321.472 Q963.608,321.472 973.976,331.072 Q985.88,341.824 985.88,344.128 Q985.88,349.888 978.2,349.888 L894.104,349.888 Q887.576,356.416 882.2,361.024 Q856.856,383.68 827.672,400.96 L830.36,402.496 L931.736,402.496 Q932.504,402.496 936.728,397.504 Q942.104,392.128 943.64,392.128 Q946.712,392.128 955.928,400.576 Q963.224,407.872 963.224,410.176 Q963.224,412.096 957.08,415.936 Q952.856,419.776 952.856,422.08 Q952.856,488.512 954.392,548.032 Q954.392,550.72 949.4,552.64 Q945.944,553.792 945.176,554.176 Q937.88,554.176 937.88,548.032 L937.88,529.984 L832.664,529.984 L832.664,549.568 Q832.664,553.792 826.904,555.328 Q822.296,557.248 820.76,557.248 Q816.152,557.248 816.152,552.64 Q817.688,533.824 817.688,515.008 L817.688,432.448 Q817.304,415.936 816.536,407.488 Q795.416,419.008 772.76,428.224 L769.688,423.616 Q833.048,388.288 873.752,349.888 L815,349.888 Q790.808,349.888 781.976,352.96 L775.832,336.448 Q788.888,339.52 815,339.52 L850.712,339.52 L850.712,282.688 L825.368,282.688 Q801.176,282.688 792.344,285.76 z M832.664,519.616 L937.88,519.616 L937.88,470.08 L832.664,470.08 z M832.664,459.712 L937.88,459.712 L937.88,413.248 L832.664,413.248 z" fill="#383838"/>
    </g>
    <g id="Label">
      <path d="M1462.656,314.384 L1499.136,314.384 Q1496.064,292.496 1486.08,275.792 Q1476.096,259.088 1461.12,247.952 Q1446.144,236.816 1426.944,231.056 Q1407.744,225.296 1386.24,225.296 Q1354.752,225.296 1330.368,236.624 Q1305.984,247.952 1289.664,267.536 Q1273.344,287.12 1264.896,313.424 Q1256.448,339.728 1256.448,369.68 Q1256.448,399.632 1264.32,425.744 Q1272.192,451.856 1287.936,471.056 Q1303.68,490.256 1327.488,501.2 Q1351.296,512.144 1383.168,512.144 Q1435.776,512.144 1466.112,483.344 Q1496.448,454.544 1501.824,402.704 L1465.344,402.704 Q1464.192,419.6 1458.432,434.192 Q1452.672,448.784 1442.496,459.344 Q1432.32,469.904 1418.304,475.856 Q1404.288,481.808 1386.24,481.808 Q1361.664,481.808 1344,472.592 Q1326.336,463.376 1315.008,447.824 Q1303.68,432.272 1298.304,411.344 Q1292.928,390.416 1292.928,366.992 Q1292.928,345.488 1298.304,325.52 Q1303.68,305.552 1315.008,290 Q1326.336,274.448 1343.808,265.232 Q1361.28,256.016 1385.856,256.016 Q1414.656,256.016 1435.584,270.608 Q1456.512,285.2 1462.656,314.384 z" fill="#383838"/>
      <path d="M1536.76,231.824 L1536.76,506 L1569.4,506 L1569.4,393.872 Q1569.4,380.432 1573.048,369.104 Q1576.696,357.776 1583.992,349.328 Q1591.288,340.88 1602.232,336.272 Q1613.176,331.664 1628.152,331.664 Q1646.968,331.664 1657.72,342.416 Q1668.472,353.168 1668.472,371.6 L1668.472,506 L1701.112,506 L1701.112,375.44 Q1701.112,359.312 1697.848,346.064 Q1694.584,332.816 1686.52,323.216 Q1678.456,313.616 1665.4,308.24 Q1652.344,302.864 1632.76,302.864 Q1623.928,302.864 1614.52,304.784 Q1605.112,306.704 1596.472,310.736 Q1587.832,314.768 1580.92,321.104 Q1574.008,327.44 1570.168,336.656 L1569.4,336.656 L1569.4,231.824 z" fill="#383838"/>
      <path d="M1779.824,271.76 L1779.824,231.824 L1747.184,231.824 L1747.184,271.76 z M1747.184,307.472 L1747.184,506 L1779.824,506 L1779.824,307.472 z" fill="#383838"/>
      <path d="M1825.512,307.472 L1825.512,506 L1858.152,506 L1858.152,393.872 Q1858.152,380.432 1861.8,369.104 Q1865.448,357.776 1872.744,349.328 Q1880.04,340.88 1890.984,336.272 Q1901.928,331.664 1916.904,331.664 Q1935.72,331.664 1946.472,342.416 Q1957.224,353.168 1957.224,371.6 L1957.224,506 L1989.864,506 L1989.864,375.44 Q1989.864,359.312 1986.6,346.064 Q1983.336,332.816 1975.272,323.216 Q1967.208,313.616 1954.152,308.24 Q1941.096,302.864 1921.512,302.864 Q1877.352,302.864 1857,338.96 L1856.232,338.96 L1856.232,307.472 z" fill="#383838"/>
      <path d="M2171.872,387.728 L2057.824,387.728 Q2058.592,376.208 2062.816,366.032 Q2067.04,355.856 2074.336,348.176 Q2081.632,340.496 2091.808,336.08 Q2101.984,331.664 2114.656,331.664 Q2126.944,331.664 2137.12,336.08 Q2147.296,340.496 2154.784,347.984 Q2162.272,355.472 2166.688,365.84 Q2171.104,376.208 2171.872,387.728 z M2203.36,443.024 L2171.104,443.024 Q2166.88,462.608 2153.632,472.208 Q2140.384,481.808 2119.648,481.808 Q2103.52,481.808 2091.616,476.432 Q2079.712,471.056 2072.032,462.032 Q2064.352,453.008 2060.896,441.296 Q2057.44,429.584 2057.824,416.528 L2206.432,416.528 Q2207.2,398.48 2203.168,378.512 Q2199.136,358.544 2188.576,341.648 Q2178.016,324.752 2160.544,313.808 Q2143.072,302.864 2116.576,302.864 Q2096.224,302.864 2079.136,310.544 Q2062.048,318.224 2049.568,332.048 Q2037.088,345.872 2030.176,364.688 Q2023.264,383.504 2023.264,406.16 Q2024.032,428.816 2029.984,448.016 Q2035.936,467.216 2047.84,481.04 Q2059.744,494.864 2077.216,502.544 Q2094.688,510.224 2118.496,510.224 Q2152.288,510.224 2174.56,493.328 Q2196.832,476.432 2203.36,443.024 z" fill="#383838"/>
      <path d="M2255.192,443.408 L2222.552,443.408 Q2223.32,461.84 2230.232,474.704 Q2237.144,487.568 2248.664,495.44 Q2260.184,503.312 2275.16,506.768 Q2290.136,510.224 2306.648,510.224 Q2321.624,510.224 2336.792,507.344 Q2351.96,504.464 2364.056,497.168 Q2376.152,489.872 2383.64,477.968 Q2391.128,466.064 2391.128,448.016 Q2391.128,433.808 2385.56,424.208 Q2379.992,414.608 2370.968,408.272 Q2361.944,401.936 2350.232,398.096 Q2338.52,394.256 2326.232,391.568 Q2314.712,388.88 2303.192,386.384 Q2291.672,383.888 2282.456,380.24 Q2273.24,376.592 2267.288,371.024 Q2261.336,365.456 2261.336,357.008 Q2261.336,349.328 2265.176,344.528 Q2269.016,339.728 2275.16,336.848 Q2281.304,333.968 2288.792,332.816 Q2296.28,331.664 2303.576,331.664 Q2311.64,331.664 2319.512,333.392 Q2327.384,335.12 2333.912,338.96 Q2340.44,342.8 2344.664,349.136 Q2348.888,355.472 2349.656,365.072 L2382.296,365.072 Q2381.144,347.024 2374.616,334.928 Q2368.088,322.832 2357.144,315.728 Q2346.2,308.624 2331.992,305.744 Q2317.784,302.864 2300.888,302.864 Q2287.832,302.864 2274.584,306.128 Q2261.336,309.392 2250.776,316.112 Q2240.216,322.832 2233.496,333.584 Q2226.776,344.336 2226.776,359.312 Q2226.776,378.512 2236.376,389.264 Q2245.976,400.016 2260.376,405.968 Q2274.776,411.92 2291.672,415.184 Q2308.568,418.448 2322.968,422.48 Q2337.368,426.512 2346.968,433.04 Q2356.568,439.568 2356.568,452.24 Q2356.568,461.456 2351.96,467.408 Q2347.352,473.36 2340.248,476.432 Q2333.144,479.504 2324.696,480.656 Q2316.248,481.808 2308.568,481.808 Q2298.584,481.808 2289.176,479.888 Q2279.768,477.968 2272.28,473.552 Q2264.792,469.136 2260.184,461.648 Q2255.576,454.16 2255.192,443.408 z" fill="#383838"/>
      <path d="M2560.08,387.728 L2446.032,387.728 Q2446.8,376.208 2451.024,366.032 Q2455.248,355.856 2462.544,348.176 Q2469.84,340.496 2480.016,336.08 Q2490.192,331.664 2502.864,331.664 Q2515.152,331.664 2525.328,336.08 Q2535.504,340.496 2542.992,347.984 Q2550.48,355.472 2554.896,365.84 Q2559.312,376.208 2560.08,387.728 z M2591.568,443.024 L2559.312,443.024 Q2555.088,462.608 2541.84,472.208 Q2528.592,481.808 2507.856,481.808 Q2491.728,481.808 2479.824,476.432 Q2467.92,471.056 2460.24,462.032 Q2452.56,453.008 2449.104,441.296 Q2445.648,429.584 2446.032,416.528 L2594.64,416.528 Q2595.408,398.48 2591.376,378.512 Q2587.344,358.544 2576.784,341.648 Q2566.224,324.752 2548.752,313.808 Q2531.28,302.864 2504.784,302.864 Q2484.432,302.864 2467.344,310.544 Q2450.256,318.224 2437.776,332.048 Q2425.296,345.872 2418.384,364.688 Q2411.472,383.504 2411.472,406.16 Q2412.24,428.816 2418.192,448.016 Q2424.144,467.216 2436.048,481.04 Q2447.952,494.864 2465.424,502.544 Q2482.896,510.224 2506.704,510.224 Q2540.496,510.224 2562.768,493.328 Q2585.04,476.432 2591.568,443.024 z" fill="#383838"/>
      <path d="M2792.768,262.544 L2792.768,506 L2829.248,506 L2829.248,262.544 L2920.64,262.544 L2920.64,231.824 L2701.376,231.824 L2701.376,262.544 z" fill="#383838"/>
      <path d="M3035.832,387.728 L2921.784,387.728 Q2922.552,376.208 2926.776,366.032 Q2931,355.856 2938.296,348.176 Q2945.592,340.496 2955.768,336.08 Q2965.944,331.664 2978.616,331.664 Q2990.904,331.664 3001.08,336.08 Q3011.256,340.496 3018.744,347.984 Q3026.232,355.472 3030.648,365.84 Q3035.064,376.208 3035.832,387.728 z M3067.32,443.024 L3035.064,443.024 Q3030.84,462.608 3017.592,472.208 Q3004.344,481.808 2983.608,481.808 Q2967.48,481.808 2955.576,476.432 Q2943.672,471.056 2935.992,462.032 Q2928.312,453.008 2924.856,441.296 Q2921.4,429.584 2921.784,416.528 L3070.392,416.528 Q3071.16,398.48 3067.128,378.512 Q3063.096,358.544 3052.536,341.648 Q3041.976,324.752 3024.504,313.808 Q3007.032,302.864 2980.536,302.864 Q2960.184,302.864 2943.096,310.544 Q2926.008,318.224 2913.528,332.048 Q2901.048,345.872 2894.136,364.688 Q2887.224,383.504 2887.224,406.16 Q2887.992,428.816 2893.944,448.016 Q2899.896,467.216 2911.8,481.04 Q2923.704,494.864 2941.176,502.544 Q2958.648,510.224 2982.456,510.224 Q3016.248,510.224 3038.52,493.328 Q3060.792,476.432 3067.32,443.024 z" fill="#383838"/>
      <path d="M3152.56,401.552 L3078.064,506 L3117.616,506 L3172.912,423.824 L3228.208,506 L3270.064,506 L3193.264,398.864 L3261.616,307.472 L3222.448,307.472 L3172.912,376.976 L3125.296,307.472 L3083.44,307.472 z" fill="#383838"/>
      <path d="M3338.408,307.472 L3338.408,247.952 L3305.768,247.952 L3305.768,307.472 L3271.976,307.472 L3271.976,336.272 L3305.768,336.272 L3305.768,462.608 Q3305.768,476.432 3308.456,484.88 Q3311.144,493.328 3316.712,497.936 Q3322.28,502.544 3331.304,504.272 Q3340.328,506 3353,506 L3377.96,506 L3377.96,477.2 L3362.984,477.2 Q3355.304,477.2 3350.504,476.624 Q3345.704,476.048 3343.016,474.128 Q3340.328,472.208 3339.368,468.752 Q3338.408,465.296 3338.408,459.536 L3338.408,336.272 L3377.96,336.272 L3377.96,307.472 z" fill="#383838"/>
      <path d="M3552.664,363.152 L3552.664,262.544 L3624.088,262.544 Q3655.192,262.544 3669.592,275.408 Q3683.992,288.272 3683.992,312.848 Q3683.992,337.424 3669.592,350.48 Q3655.192,363.536 3624.088,363.152 z M3516.184,231.824 L3516.184,506 L3552.664,506 L3552.664,393.872 L3636.376,393.872 Q3677.848,394.256 3699.16,372.752 Q3720.472,351.248 3720.472,312.848 Q3720.472,274.448 3699.16,253.136 Q3677.848,231.824 3636.376,231.824 z" fill="#383838"/>
      <path d="M3753.488,307.472 L3753.488,506 L3786.128,506 L3786.128,417.68 Q3786.128,398.48 3789.968,383.696 Q3793.808,368.912 3802.256,358.544 Q3810.704,348.176 3824.528,342.8 Q3838.352,337.424 3857.936,337.424 L3857.936,302.864 Q3831.44,302.096 3814.16,313.616 Q3796.88,325.136 3784.976,349.328 L3784.208,349.328 L3784.208,307.472 z" fill="#383838"/>
      <path d="M3894.408,406.928 Q3894.408,388.88 3899.208,374.864 Q3904.008,360.848 3912.456,351.248 Q3920.904,341.648 3932.232,336.656 Q3943.56,331.664 3956.232,331.664 Q3968.904,331.664 3980.232,336.656 Q3991.56,341.648 4000.008,351.248 Q4008.456,360.848 4013.256,374.864 Q4018.056,388.88 4018.056,406.928 Q4018.056,424.976 4013.256,438.992 Q4008.456,453.008 4000.008,462.416 Q3991.56,471.824 3980.232,476.816 Q3968.904,481.808 3956.232,481.808 Q3943.56,481.808 3932.232,476.816 Q3920.904,471.824 3912.456,462.416 Q3904.008,453.008 3899.208,438.992 Q3894.408,424.976 3894.408,406.928 z M3859.848,406.928 Q3859.848,428.816 3865.992,447.632 Q3872.136,466.448 3884.424,480.464 Q3896.712,494.48 3914.76,502.352 Q3932.808,510.224 3956.232,510.224 Q3980.04,510.224 3997.896,502.352 Q4015.752,494.48 4028.04,480.464 Q4040.328,466.448 4046.472,447.632 Q4052.616,428.816 4052.616,406.928 Q4052.616,385.04 4046.472,366.032 Q4040.328,347.024 4028.04,333.008 Q4015.752,318.992 3997.896,310.928 Q3980.04,302.864 3956.232,302.864 Q3932.808,302.864 3914.76,310.928 Q3896.712,318.992 3884.424,333.008 Q3872.136,347.024 3865.992,366.032 Q3859.848,385.04 3859.848,406.928 z" fill="#383838"/>
      <path d="M4120.576,271.76 L4120.576,231.824 L4087.936,231.824 L4087.936,271.76 z M4120.576,530.96 L4120.576,307.472 L4087.936,307.472 L4087.936,525.584 Q4087.936,540.944 4084.096,546.896 Q4080.256,552.848 4069.504,552.848 L4062.592,552.848 Q4061.056,552.848 4059.712,552.656 Q4058.368,552.464 4056.448,552.08 L4056.448,580.112 Q4064.128,581.648 4072.96,581.648 Q4094.848,581.648 4107.712,569.552 Q4120.576,557.456 4120.576,530.96 z" fill="#383838"/>
      <path d="M4304.12,387.728 L4190.072,387.728 Q4190.84,376.208 4195.064,366.032 Q4199.288,355.856 4206.584,348.176 Q4213.88,340.496 4224.056,336.08 Q4234.232,331.664 4246.904,331.664 Q4259.192,331.664 4269.368,336.08 Q4279.544,340.496 4287.032,347.984 Q4294.52,355.472 4298.936,365.84 Q4303.352,376.208 4304.12,387.728 z M4335.608,443.024 L4303.352,443.024 Q4299.128,462.608 4285.88,472.208 Q4272.632,481.808 4251.896,481.808 Q4235.768,481.808 4223.864,476.432 Q4211.96,471.056 4204.28,462.032 Q4196.6,453.008 4193.144,441.296 Q4189.688,429.584 4190.072,416.528 L4338.68,416.528 Q4339.448,398.48 4335.416,378.512 Q4331.384,358.544 4320.824,341.648 Q4310.264,324.752 4292.792,313.808 Q4275.32,302.864 4248.824,302.864 Q4228.472,302.864 4211.384,310.544 Q4194.296,318.224 4181.816,332.048 Q4169.336,345.872 4162.424,364.688 Q4155.512,383.504 4155.512,406.16 Q4156.28,428.816 4162.232,448.016 Q4168.184,467.216 4180.088,481.04 Q4191.992,494.864 4209.464,502.544 Q4226.936,510.224 4250.744,510.224 Q4284.536,510.224 4306.808,493.328 Q4329.08,476.432 4335.608,443.024 z" fill="#383838"/>
      <path d="M4502.256,371.216 L4536.048,371.216 Q4534.128,353.552 4526.832,340.688 Q4519.536,327.824 4508.208,319.376 Q4496.88,310.928 4482.096,306.896 Q4467.312,302.864 4450.417,302.864 Q4426.992,302.864 4409.328,311.12 Q4391.664,319.376 4379.952,333.776 Q4368.24,348.176 4362.48,367.568 Q4356.72,386.96 4356.72,409.232 Q4356.72,431.504 4362.672,450.128 Q4368.624,468.752 4380.336,482.192 Q4392.048,495.632 4409.521,502.928 Q4426.992,510.224 4449.648,510.224 Q4487.664,510.224 4509.744,490.256 Q4531.824,470.288 4537.2,433.424 L4503.792,433.424 Q4500.72,456.464 4487.088,469.136 Q4473.456,481.808 4449.264,481.808 Q4433.904,481.808 4422.768,475.664 Q4411.632,469.52 4404.72,459.344 Q4397.808,449.168 4394.544,436.112 Q4391.28,423.056 4391.28,409.232 Q4391.28,394.256 4394.352,380.24 Q4397.424,366.224 4404.528,355.472 Q4411.632,344.72 4423.536,338.192 Q4435.44,331.664 4453.104,331.664 Q4473.84,331.664 4486.128,342.032 Q4498.417,352.4 4502.256,371.216 z" fill="#383838"/>
      <path d="M4613.992,307.472 L4613.992,247.952 L4581.352,247.952 L4581.352,307.472 L4547.56,307.472 L4547.56,336.272 L4581.352,336.272 L4581.352,462.608 Q4581.352,476.432 4584.04,484.88 Q4586.728,493.328 4592.296,497.936 Q4597.864,502.544 4606.888,504.272 Q4615.912,506 4628.584,506 L4653.544,506 L4653.544,477.2 L4638.568,477.2 Q4630.888,477.2 4626.088,476.624 Q4621.288,476.048 4618.6,474.128 Q4615.912,472.208 4614.952,468.752 Q4613.992,465.296 4613.992,459.536 L4613.992,336.272 L4653.544,336.272 L4653.544,307.472 z" fill="#383838"/>
      <path d="M1427.824,909.28 Q1427.824,934.24 1428.592,950.944 Q1429.36,967.648 1431.28,981.472 L1399.024,981.472 Q1400.56,967.648 1401.52,950.944 Q1402.48,934.24 1402.48,909.28 L1402.48,848.608 L1298.416,848.608 L1298.416,882.016 L1271.536,882.016 Q1272.688,869.728 1273.456,856.288 Q1274.224,842.848 1274.224,830.56 L1274.224,738.4 Q1274.224,728.416 1273.456,717.28 Q1272.688,706.144 1271.536,698.848 Q1286.128,700.768 1318.576,701.728 Q1351.024,702.688 1402.48,703.072 L1402.48,675.424 Q1402.48,661.216 1401.712,647.392 Q1400.944,633.568 1399.024,622.432 Q1407.856,624.352 1416.496,625.312 Q1425.136,626.272 1430.512,626.272 Q1437.04,626.272 1437.808,629.344 Q1438.576,632.416 1432.432,635.872 Q1430.128,637.792 1428.976,641.056 Q1427.824,644.32 1427.824,650.848 L1427.824,703.072 Q1478.896,702.688 1510.192,701.728 Q1541.488,700.768 1556.08,698.848 Q1555.696,702.688 1555.312,708.64 Q1554.928,714.592 1554.736,721.12 Q1554.544,727.648 1554.352,734.368 Q1554.16,741.088 1554.16,746.08 L1554.16,824.032 Q1554.16,835.552 1554.736,851.104 Q1555.312,866.656 1556.08,878.944 L1529.584,878.944 L1529.584,848.608 L1427.824,848.608 z M1402.48,722.272 L1298.416,722.272 L1298.416,828.64 L1402.48,828.64 z M1427.824,828.64 L1529.584,828.64 L1529.584,722.272 L1427.824,722.272 z" fill="#383838"/>
      <path d="M1773.424,775.264 L1727.344,775.264 L1727.344,822.112 L1773.424,822.112 z M1793.392,839.776 Q1789.168,839.392 1785.328,839.2 Q1781.488,839.008 1776.688,838.816 Q1771.888,838.624 1765.936,838.624 Q1759.984,838.624 1751.92,838.624 Q1735.792,838.624 1725.808,838.816 Q1715.824,839.008 1707.76,839.776 Q1708.528,833.248 1708.912,820.768 Q1709.296,808.288 1709.296,798.304 Q1709.296,788.32 1708.912,776.608 Q1708.528,764.896 1707.76,758.368 Q1715.824,759.136 1725.808,759.328 Q1735.792,759.52 1751.92,759.52 Q1759.984,759.52 1765.936,759.52 Q1771.888,759.52 1776.688,759.328 Q1781.488,759.136 1785.328,758.944 Q1789.168,758.752 1793.392,758.368 Q1792.624,766.432 1792.24,776.416 Q1791.856,786.4 1791.856,798.304 Q1791.856,809.824 1792.24,821.344 Q1792.624,832.864 1793.392,839.776 z M1876.72,718.816 Q1872.112,713.44 1868.848,709.408 Q1865.584,705.376 1862.128,701.92 Q1858.672,698.464 1854.832,695.008 Q1850.992,691.552 1845.616,686.944 L1858.672,675.424 Q1864.816,680.8 1869.04,684.64 Q1873.264,688.48 1876.72,691.936 Q1880.176,695.392 1883.056,698.848 Q1885.936,702.304 1889.392,706.528 z M1754.224,739.168 Q1739.632,739.168 1722.928,739.744 Q1706.224,740.32 1692.784,741.856 L1692.784,719.2 Q1706.224,720.736 1722.928,721.312 Q1739.632,721.888 1754.224,721.888 L1805.296,721.888 Q1804.144,708.448 1803.184,699.04 Q1802.224,689.632 1801.456,679.648 Q1807.984,681.568 1813.36,682.72 Q1818.736,683.872 1824.88,683.488 Q1829.488,683.104 1830.448,684.448 Q1831.408,685.792 1827.184,689.632 Q1825.648,691.168 1825.072,694.432 Q1824.496,697.696 1824.496,705.376 Q1824.496,709.216 1824.496,713.248 Q1824.496,717.28 1824.88,721.888 L1845.232,721.888 Q1860.208,721.888 1877.872,721.312 Q1895.536,720.736 1908.208,719.2 L1908.208,741.856 Q1895.536,740.32 1877.872,739.744 Q1860.208,739.168 1845.232,739.168 L1826.032,739.168 Q1828.336,759.52 1835.248,787.936 Q1837.552,796.384 1840.24,804.448 Q1842.928,812.512 1846,820.192 Q1854.448,804.448 1859.632,789.856 Q1864.816,775.264 1868.656,756.448 Q1878.64,763.744 1890.544,766.816 Q1895.536,768.352 1895.344,770.464 Q1895.152,772.576 1890.928,774.496 Q1889.392,775.264 1885.936,779.68 Q1882.48,784.096 1878.256,794.464 Q1872.88,807.904 1867.312,819.232 Q1861.744,830.56 1855.216,841.696 Q1863.28,857.44 1868.656,865.696 Q1874.032,873.952 1880.56,880.864 Q1884.016,884.704 1886.896,886.24 Q1889.776,887.776 1891.888,885.472 Q1894,883.168 1894.96,876.64 Q1895.92,870.112 1895.92,857.824 Q1902.064,864.736 1905.712,867.232 Q1909.36,869.728 1914.736,871.648 Q1911.28,888.544 1906.864,897.76 Q1902.448,906.976 1897.456,910.432 Q1892.464,913.888 1887.664,912.736 Q1882.864,911.584 1878.64,908.128 Q1868.272,899.296 1859.44,888.736 Q1850.608,878.176 1842.928,862.816 Q1837.168,872.416 1832.56,879.328 Q1827.952,886.24 1823.344,891.808 Q1818.736,897.376 1813.744,902.56 Q1808.752,907.744 1801.84,913.888 Q1795.312,908.512 1791.472,906.4 Q1787.632,904.288 1781.104,902.368 Q1796.848,890.848 1808.752,877.408 Q1820.656,863.968 1832.944,843.232 Q1823.344,821.344 1816.816,795.616 Q1810.288,769.888 1807.216,739.168 z M1799.536,856.288 Q1798.768,862.432 1799.152,867.232 Q1799.536,872.032 1800.304,877.024 Q1789.552,877.792 1776.496,878.944 Q1763.44,880.096 1749.808,881.632 Q1736.176,883.168 1722.736,884.896 Q1709.296,886.624 1697.776,888.928 Q1697.008,885.088 1696.624,882.784 Q1696.24,880.48 1695.472,878.368 Q1694.704,876.256 1693.552,873.76 Q1692.4,871.264 1690.864,866.656 Q1706.224,866.656 1721.584,865.888 Q1736.944,865.12 1751.152,863.584 Q1765.36,862.048 1777.648,860.128 Q1789.936,858.208 1799.536,856.288 z M1679.728,976.864 L1655.536,976.864 Q1657.072,960.736 1657.456,945.376 Q1657.84,930.016 1657.84,912.736 L1657.84,698.464 Q1657.84,686.944 1657.456,676.192 Q1657.072,665.44 1655.536,652 Q1660.528,652.768 1668.976,652.96 Q1677.424,653.152 1693.168,653.536 Q1708.912,653.92 1734.064,653.92 Q1759.216,653.92 1797.616,653.92 Q1836.4,653.92 1861.552,653.92 Q1886.704,653.92 1902.448,653.536 Q1918.192,653.152 1926.448,652.96 Q1934.704,652.768 1939.696,652 Q1939.312,665.44 1939.312,676.384 Q1939.312,687.328 1939.312,698.464 L1939.312,905.44 Q1939.312,922.72 1939.504,938.08 Q1939.696,953.44 1940.464,969.568 L1917.04,969.568 L1917.04,947.68 L1679.728,947.68 z M1917.04,673.504 L1679.728,673.504 L1679.728,928.48 L1917.04,928.48 z" fill="#383838"/>
      <path d="M2089.072,979.168 L2060.272,979.168 Q2063.728,959.2 2063.728,941.536 L2063.728,878.56 Q2063.728,872.032 2063.152,865.504 Q2062.576,858.976 2061.04,850.912 Q2073.712,852.448 2105.008,852.832 Q2136.304,853.216 2185.456,853.216 Q2219.248,853.216 2240.56,853.024 Q2261.872,852.832 2275.312,852.64 Q2288.752,852.448 2296.24,852.064 Q2303.728,851.68 2309.872,850.912 Q2309.104,859.744 2308.528,866.272 Q2307.952,872.8 2307.952,879.712 L2307.952,940.384 Q2307.952,950.368 2308.528,957.664 Q2309.104,964.96 2310.64,973.792 L2283.76,973.792 L2283.76,955.744 L2089.072,955.744 z M2283.76,872.032 L2089.072,872.032 L2089.072,936.928 L2283.76,936.928 z M2296.816,711.904 Q2317.552,711.904 2330.224,711.328 Q2342.896,710.752 2353.648,709.984 L2353.648,732.256 Q2343.28,731.488 2330.608,730.912 Q2317.936,730.336 2297.968,730.336 L2297.968,779.104 Q2297.968,796.384 2298.352,810.016 Q2298.736,823.648 2300.272,840.16 L2272.624,840.16 Q2273.776,823.648 2274.352,810.016 Q2274.928,796.384 2274.928,779.104 L2274.928,730.336 L2210.8,730.336 Q2210.032,764.128 2200.24,792.16 Q2190.448,820.192 2171.632,844.768 Q2164.336,839.008 2157.232,836.704 Q2150.128,834.4 2138.224,835.936 Q2152.432,823.264 2162.032,810.784 Q2171.632,798.304 2177.584,783.52 Q2183.536,768.736 2186.224,750.88 Q2188.912,733.024 2188.912,709.6 Q2189.296,691.552 2188.336,678.112 Q2187.376,664.672 2184.688,650.848 Q2213.104,650.464 2233.264,649.12 Q2253.424,647.776 2268.592,645.472 Q2283.76,643.168 2296.048,639.52 Q2308.336,635.872 2321.008,630.88 Q2323.696,637.408 2326.576,641.632 Q2329.456,645.856 2334.832,652.384 Q2340.208,658.912 2337.52,661.792 Q2334.832,664.672 2324.848,661.6 Q2319.856,660.064 2310.256,660.64 Q2300.656,661.216 2290.288,662.368 Q2274.928,664.288 2263.216,665.44 Q2251.504,666.592 2242.288,667.36 Q2233.072,668.128 2225.392,668.512 Q2217.712,668.896 2210.8,668.896 L2210.8,711.904 z M2092.144,687.712 Q2063.344,687.712 2043.952,688.672 Q2024.56,689.632 2014.576,691.168 L2014.576,666.592 Q2034.544,670.048 2091.76,670.048 Q2090.992,651.616 2089.84,640.48 Q2088.688,629.344 2087.152,622.816 Q2095.984,624.736 2102.704,625.12 Q2109.424,625.504 2114.8,625.12 Q2124.784,624.736 2125.744,627.232 Q2126.704,629.728 2120.56,634.72 Q2114.416,639.712 2114.416,649.696 L2114.416,670.048 Q2131.312,669.664 2146.672,668.896 Q2162.032,668.128 2170.864,666.592 L2170.864,691.168 Q2162.032,689.632 2146.672,688.864 Q2131.312,688.096 2114.416,688.096 L2114.416,724.96 Q2129.392,719.968 2143.216,715.168 Q2157.04,710.368 2168.176,704.992 Q2163.184,719.584 2170.48,731.104 Q2157.04,733.792 2143.024,736.864 Q2129.008,739.936 2114.416,744.16 L2114.416,797.152 Q2114.416,807.52 2112.304,814.048 Q2110.192,820.576 2103.088,824.608 Q2095.984,828.64 2082.544,830.368 Q2069.104,832.096 2046.832,832.48 Q2048.368,823.264 2046.832,817.312 Q2045.296,811.36 2038.768,805.216 Q2056.048,808.288 2066.608,808.864 Q2077.168,809.44 2082.928,807.52 Q2088.688,805.6 2090.416,800.8 Q2092.144,796 2092.144,788.32 L2092.144,750.304 Q2076.016,755.296 2059.504,761.056 Q2042.992,766.816 2026.48,773.344 Q2025.712,765.664 2022.448,759.712 Q2019.184,753.76 2010.352,748.384 Q2027.632,746.08 2048.944,741.664 Q2070.256,737.248 2092.144,731.104 z" fill="#383838"/>
      <path d="M2584.816,873.952 Q2614.384,873.952 2634.928,873.76 Q2655.472,873.568 2671.216,873.184 Q2686.96,872.8 2699.632,872.032 Q2712.304,871.264 2726.512,870.112 L2726.512,893.536 Q2712.304,892.384 2699.44,891.616 Q2686.576,890.848 2671.024,890.464 Q2655.472,890.08 2634.928,889.888 Q2614.384,889.696 2584.816,889.696 L2584.816,945.376 Q2584.816,955.744 2582.704,962.464 Q2580.592,969.184 2574.256,972.832 Q2567.92,976.48 2555.632,977.824 Q2543.344,979.168 2523.376,978.784 Q2522.224,966.112 2511.856,952.672 Q2529.136,954.976 2539.12,955.744 Q2549.104,956.512 2554.096,955.168 Q2559.088,953.824 2560.432,949.792 Q2561.776,945.76 2561.776,938.848 L2561.776,889.696 Q2537.584,889.696 2519.344,889.696 Q2501.104,889.696 2486.896,889.888 Q2472.688,890.08 2461.744,890.272 Q2450.8,890.464 2441.392,891.04 Q2431.984,891.616 2422.96,892.192 Q2413.936,892.768 2403.952,893.536 L2403.952,870.112 Q2419.312,871.264 2431.984,872.032 Q2444.656,872.8 2461.168,873.184 Q2477.68,873.568 2501.296,873.76 Q2524.912,873.952 2561.776,873.952 L2561.776,857.824 L2622.448,829.792 L2529.136,829.792 Q2516.08,829.792 2507.248,829.792 Q2498.416,829.792 2491.12,829.984 Q2483.824,830.176 2477.104,830.56 Q2470.384,830.944 2461.552,831.712 L2461.936,812.128 Q2471.152,812.896 2480.176,813.088 Q2489.2,813.28 2500.72,813.472 Q2512.24,813.664 2527.408,813.664 Q2542.576,813.664 2564.08,813.664 Q2585.2,813.664 2600.368,813.664 Q2615.536,813.664 2626.864,813.472 Q2638.192,813.28 2647.216,813.088 Q2656.24,812.896 2665.456,812.128 L2665.456,832.48 Q2660.08,833.248 2653.744,834.976 Q2647.408,836.704 2639.728,840.544 L2584.816,865.888 z M2565.232,724.96 Q2576.752,715.36 2587.12,702.688 Q2590.192,705.76 2593.072,708.064 Q2595.952,710.368 2600.944,713.056 Q2604.016,714.976 2603.44,716.896 Q2602.864,718.816 2598.64,719.584 Q2595.952,720.352 2592.112,722.848 Q2588.272,725.344 2577.52,733.024 Q2588.272,739.936 2597.488,746.464 Q2606.704,752.992 2612.848,757.6 L2599.792,768.736 Q2594.032,762.592 2585.2,755.68 Q2576.368,748.768 2566,741.472 Q2559.472,746.848 2550.64,753.184 Q2541.808,759.52 2529.904,768.352 Q2525.68,762.976 2524.144,760.48 Q2522.608,757.984 2516.464,754.528 Q2527.6,749.536 2536.624,744.544 Q2545.648,739.552 2554.096,733.408 Q2547.568,729.184 2540.848,725.344 Q2534.128,721.504 2527.6,718.048 L2537.2,707.68 Q2550.64,715.744 2565.232,724.96 z M2646.64,707.68 Q2637.808,707.68 2630.704,708.064 Q2623.6,708.448 2617.456,709.984 L2617.456,693.472 Q2630.128,695.776 2646.64,695.776 L2675.056,695.776 L2677.36,669.28 L2644.336,669.28 Q2637.808,668.896 2631.28,669.28 Q2624.752,669.664 2614.384,670.432 L2614.384,653.152 Q2624.368,653.92 2634.544,654.304 Q2644.72,654.688 2657.008,654.688 Q2669.296,654.688 2680.24,654.304 Q2691.184,653.92 2701.168,653.152 Q2699.632,659.68 2698.672,667.552 Q2697.712,675.424 2696.56,686.56 L2688.496,770.656 Q2700.784,770.272 2710.192,770.08 Q2719.6,769.888 2728.048,769.12 L2728.048,835.552 L2705.776,835.552 L2705.776,786.016 L2426.608,786.016 L2426.608,839.008 L2405.488,839.008 L2405.488,769.12 Q2413.168,769.504 2421.616,769.888 Q2430.064,770.272 2441.2,770.656 L2432.752,685.408 Q2431.984,676.96 2430.64,670.624 Q2429.296,664.288 2427.76,655.456 Q2446.192,656.992 2464.432,654.112 Q2482.672,651.232 2496.88,642.784 Q2500.336,649.696 2503.024,652.192 Q2505.712,654.688 2510.32,657.76 Q2514.16,660.064 2513.584,662.176 Q2513.008,664.288 2508.016,663.52 Q2504.944,663.136 2500.144,662.944 Q2495.344,662.752 2489.2,663.52 Q2481.904,665.056 2472.88,666.4 Q2463.856,667.744 2450.416,669.664 L2452.72,695.776 L2482.288,695.776 Q2491.12,695.776 2497.84,695.392 Q2504.56,695.008 2511.472,693.472 L2511.472,709.216 Q2504.944,708.064 2498.032,707.488 Q2491.12,706.912 2482.288,706.912 L2453.872,706.912 L2456.176,733.792 L2480.752,733.792 Q2489.584,733.792 2496.304,733.6 Q2503.024,733.408 2509.936,731.872 L2509.936,747.616 Q2503.408,746.848 2497.648,746.464 Q2491.888,746.08 2480.752,746.08 L2456.944,746.08 L2459.248,771.04 L2668.912,771.04 L2670.832,746.464 L2645.872,746.464 Q2637.04,746.464 2630.128,747.04 Q2623.216,747.616 2616.688,748 L2616.688,731.872 Q2623.6,732.64 2630.32,733.216 Q2637.04,733.792 2645.872,733.792 L2671.984,733.792 L2674.288,707.68 z M2565.232,655.84 Q2577.904,644.704 2588.656,630.88 Q2593.648,636.64 2596.336,638.752 Q2599.024,640.864 2604.4,643.552 Q2606.32,644.704 2605.936,646.048 Q2605.552,647.392 2602.096,648.16 Q2600.56,648.16 2599.024,648.736 Q2597.488,649.312 2594.8,651.04 Q2592.112,652.768 2587.888,656.032 Q2583.664,659.296 2577.136,664.288 Q2585.584,670.048 2593.072,675.616 Q2600.56,681.184 2607.088,686.176 L2594.416,699.232 Q2587.12,691.552 2580.208,685.216 Q2573.296,678.88 2565.616,673.504 Q2559.088,678.88 2550.448,685.792 Q2541.808,692.704 2531.056,701.536 Q2529.136,696.928 2526.832,694.048 Q2524.528,691.168 2519.536,688.096 Q2529.136,682.336 2537.584,676.96 Q2546.032,671.584 2553.712,665.44 Q2546.032,660.064 2539.312,656.416 Q2532.592,652.768 2524.912,648.928 L2534.128,635.104 Q2542.192,640.096 2548.72,644.704 Q2555.248,649.312 2565.232,655.84 z" fill="#383838"/>
      <path d="M2854,977.248 L2830.192,977.248 Q2831.728,966.112 2832.496,956.128 Q2833.264,946.144 2833.264,939.232 L2833.264,875.104 Q2833.264,869.344 2832.496,862.048 Q2831.728,854.752 2829.808,847.072 Q2844.4,848.608 2874.16,849.376 Q2903.92,850.144 2951.152,850.144 Q2998.768,850.144 3028.336,849.376 Q3057.904,848.608 3072.496,847.072 Q3070.576,854.752 3070.384,860.32 Q3070.192,865.888 3070.192,875.104 L3070.192,939.232 Q3070.192,948.064 3070.768,956.704 Q3071.344,965.344 3072.88,976.096 L3047.536,976.096 L3047.536,953.056 L2854,953.056 z M2854,907.36 L2854,938.08 L3047.536,938.08 L3047.536,907.36 z M3047.536,893.536 L3047.536,864.352 L2854,864.352 L2854,893.536 z M2939.632,755.296 Q2921.2,755.296 2903.92,755.296 Q2886.64,755.296 2872.048,755.488 Q2857.456,755.68 2846.896,755.872 Q2836.336,756.064 2831.728,756.448 L2831.728,738.4 Q2840.56,740.32 2850.352,740.704 Q2860.144,741.088 2872.432,741.088 L2939.632,741.088 L2939.632,716.128 L2846.704,716.128 Q2839.024,716.128 2830.192,716.32 Q2821.36,716.512 2812.336,716.704 Q2803.312,716.896 2794.864,717.472 Q2786.416,718.048 2779.504,718.816 L2779.504,698.848 Q2786.416,699.616 2794.864,700.192 Q2803.312,700.768 2812.336,701.152 Q2821.36,701.536 2830.192,701.728 Q2839.024,701.92 2846.704,701.92 L2939.632,701.92 L2939.632,676.192 L2869.744,676.192 Q2860.528,676.192 2849.776,676.576 Q2839.024,676.96 2830.192,678.112 L2830.192,658.528 Q2835.184,659.296 2847.856,659.872 Q2860.528,660.448 2876.464,660.832 Q2892.4,661.216 2909.296,661.6 Q2926.192,661.984 2939.632,661.984 Q2939.248,646.624 2938.48,639.136 Q2937.712,631.648 2936.176,625.12 Q2945.008,626.656 2951.344,626.848 Q2957.68,627.04 2965.36,626.272 Q2969.584,626.272 2970.16,627.808 Q2970.736,629.344 2966.512,632.032 Q2964.208,633.952 2963.056,639.904 Q2961.904,645.856 2961.904,661.984 Q2976.112,661.984 2992.24,661.792 Q3008.368,661.6 3022.768,661.216 Q3037.168,660.832 3047.728,660.448 Q3058.288,660.064 3061.744,659.68 Q3061.744,663.52 3061.552,675.424 Q3061.36,687.328 3061.36,701.92 Q3075.952,701.536 3092.272,700.768 Q3108.592,700 3120.496,698.848 L3120.496,718.816 Q3108.592,717.664 3092.272,717.088 Q3075.952,716.512 3061.36,716.128 Q3061.36,730.336 3061.36,741.664 Q3061.36,752.992 3061.744,756.832 Q3058.288,756.448 3047.536,756.064 Q3036.784,755.68 3022.576,755.488 Q3008.368,755.296 2992.24,755.296 Q2976.112,755.296 2961.904,755.296 L2961.904,779.488 Q2980.336,779.488 2998.192,779.296 Q3016.048,779.104 3032.176,778.72 Q3048.304,778.336 3061.936,777.568 Q3075.568,776.8 3085.936,776.032 L3085.936,796 Q3065.2,794.08 3032.176,793.504 Q2999.152,792.928 2961.904,792.928 L2961.904,814.048 Q2981.488,814.048 3003.376,813.664 Q3025.264,813.28 3045.808,812.896 Q3066.352,812.512 3083.44,811.936 Q3100.528,811.36 3110.512,810.592 L3110.512,829.792 Q3099.376,829.024 3082.096,828.448 Q3064.816,827.872 3043.504,827.488 Q3022.192,827.104 2998,826.912 Q2973.808,826.72 2949.232,826.72 Q2925.04,826.72 2900.848,826.912 Q2876.656,827.104 2855.152,827.488 Q2833.648,827.872 2815.984,828.448 Q2798.32,829.024 2787.184,829.792 L2787.184,810.592 Q2797.936,811.36 2815.6,812.128 Q2833.264,812.896 2854.384,813.28 Q2875.504,813.664 2897.776,813.856 Q2920.048,814.048 2939.632,814.048 L2939.632,792.928 Q2921.2,792.928 2903.536,793.12 Q2885.872,793.312 2869.744,793.696 Q2853.616,794.08 2839.984,794.656 Q2826.352,795.232 2816.368,796 L2816.368,776.032 Q2826.352,776.8 2839.984,777.568 Q2853.616,778.336 2869.744,778.72 Q2885.872,779.104 2903.536,779.296 Q2921.2,779.488 2939.632,779.488 z M3039.856,676.192 L2961.904,676.192 L2961.904,701.92 L3039.856,701.92 z M3039.856,741.088 L3039.856,716.128 L2961.904,716.128 L2961.904,741.088 z" fill="#383838"/>
      <path d="M3332.464,889.312 L3426.544,889.312 L3426.544,858.208 L3332.464,858.208 z M3310.192,858.208 L3217.648,858.208 L3217.648,889.312 L3310.192,889.312 z M3332.464,905.824 Q3332.464,918.496 3333.808,926.176 Q3335.152,933.856 3340.72,938.08 Q3346.288,942.304 3357.232,943.84 Q3368.176,945.376 3387.76,945.76 Q3401.584,946.144 3413.68,945.568 Q3425.776,944.992 3435.376,943.84 Q3446.896,942.304 3453.808,940.576 Q3460.72,938.848 3465.328,933.856 Q3469.936,928.864 3473.2,919.84 Q3476.464,910.816 3480.688,894.688 Q3483.76,903.904 3489.136,907.36 Q3494.512,910.816 3506.032,911.584 Q3499.504,926.944 3492.784,936.928 Q3486.064,946.912 3478,953.056 Q3469.936,959.2 3460.144,962.08 Q3450.352,964.96 3437.296,965.728 Q3429.616,966.496 3415.6,966.304 Q3401.584,966.112 3383.536,966.112 Q3359.344,966.112 3344.752,964.192 Q3330.16,962.272 3322.48,955.936 Q3314.8,949.6 3312.496,937.696 Q3310.192,925.792 3310.192,905.824 Q3282.928,905.824 3265.072,905.824 Q3247.216,905.824 3234.544,906.208 Q3221.872,906.592 3212.464,906.976 Q3203.056,907.36 3193.456,907.744 Q3194.608,904.288 3195.184,898.912 Q3195.76,893.536 3195.76,884.32 L3195.76,818.656 Q3195.76,812.128 3195.184,805.6 Q3194.608,799.072 3193.456,796 Q3204.592,796.768 3213.04,797.152 Q3221.488,797.536 3234.16,797.728 Q3246.832,797.92 3267.184,797.92 Q3287.536,797.92 3322.096,797.92 Q3353.584,797.92 3373.36,797.92 Q3393.136,797.92 3406.576,797.728 Q3420.016,797.536 3429.616,797.152 Q3439.216,796.768 3450.352,796 Q3449.584,799.84 3448.816,805.984 Q3448.048,812.128 3448.048,818.656 L3448.048,883.552 Q3448.048,890.08 3448.624,897.184 Q3449.2,904.288 3450.352,907.744 Q3440.368,907.36 3431.152,906.976 Q3421.936,906.592 3409.264,906.208 Q3396.592,905.824 3378.352,905.824 Q3360.112,905.824 3332.464,905.824 z M3310.192,813.664 L3217.648,813.664 L3217.648,843.232 L3310.192,843.232 z M3332.464,843.232 L3426.544,843.232 L3426.544,813.664 L3332.464,813.664 z M3356.656,769.504 L3356.656,756.064 Q3362.416,756.448 3374.128,756.64 Q3385.84,756.832 3397.36,756.832 Q3408.88,756.832 3421.36,756.64 Q3433.84,756.448 3439.6,756.064 L3439.6,769.504 Q3433.84,769.12 3421.36,768.928 Q3408.88,768.736 3397.36,768.736 Q3385.84,768.736 3374.128,768.928 Q3362.416,769.12 3356.656,769.504 z M3356.656,735.712 L3356.656,722.272 Q3362.416,722.656 3374.128,722.848 Q3385.84,723.04 3397.36,723.04 Q3408.88,723.04 3421.36,722.848 Q3433.84,722.656 3439.6,722.272 L3439.6,735.712 Q3433.84,735.328 3421.36,735.136 Q3408.88,734.944 3397.36,734.944 Q3385.84,734.944 3374.128,735.136 Q3362.416,735.328 3356.656,735.712 z M3206.512,768.736 L3206.512,755.68 Q3212.272,756.064 3223.984,756.256 Q3235.696,756.448 3247.216,756.448 Q3258.736,756.448 3271.6,756.256 Q3284.464,756.064 3290.224,755.68 L3290.224,768.736 Q3284.464,768.352 3271.6,768.16 Q3258.736,767.968 3247.216,767.968 Q3235.696,767.968 3223.984,768.16 Q3212.272,768.352 3206.512,768.736 z M3206.128,736.096 L3206.128,723.04 Q3211.888,723.424 3223.408,723.616 Q3234.928,723.808 3246.448,723.808 Q3257.968,723.808 3270.64,723.616 Q3283.312,723.424 3289.072,723.04 L3289.072,736.096 Q3283.312,735.712 3270.64,735.52 Q3257.968,735.328 3246.448,735.328 Q3234.928,735.328 3223.408,735.52 Q3211.888,735.712 3206.128,736.096 z M3311.728,665.056 Q3292.144,665.056 3272.752,665.248 Q3253.36,665.44 3236.08,665.632 Q3218.8,665.824 3204.208,666.4 Q3189.616,666.976 3178.864,667.36 L3178.864,646.24 Q3190.384,647.008 3203.248,647.392 Q3216.112,647.776 3232.816,647.968 Q3249.52,648.16 3271.792,648.352 Q3294.064,648.544 3324.016,648.544 Q3370.864,648.544 3408.496,647.968 Q3446.128,647.392 3469.168,646.24 L3469.168,667.36 Q3447.28,666.208 3415.024,665.632 Q3382.768,665.056 3334.384,665.056 L3334.384,687.712 Q3365.488,687.712 3388.528,687.52 Q3411.568,687.328 3428.848,687.136 Q3446.128,686.944 3458.608,686.56 Q3471.088,686.176 3481.072,685.792 L3481.072,757.216 L3458.8,757.216 L3458.8,703.84 L3334.384,703.84 L3334.384,745.312 Q3334.384,757.6 3334.576,766.24 Q3334.768,774.88 3335.536,785.632 L3310.192,785.632 Q3310.96,774.496 3311.344,765.856 Q3311.728,757.216 3311.728,745.696 L3311.728,703.84 L3183.472,703.84 L3183.472,759.52 L3161.584,759.52 L3161.584,685.792 Q3171.568,686.176 3184.24,686.56 Q3196.912,686.944 3214.576,687.136 Q3232.24,687.328 3256.048,687.52 Q3279.856,687.712 3311.728,687.712 z" fill="#383838"/>
      <path d="M3709.168,746.848 L3802.864,674.656 L3673.072,674.656 Q3651.568,674.656 3631.984,674.848 Q3612.4,675.04 3590.512,676.576 L3590.512,652.384 Q3601.648,653.152 3613.168,653.344 Q3624.688,653.536 3639.472,653.728 Q3654.256,653.92 3673.264,653.92 Q3692.272,653.92 3718.768,653.92 Q3749.488,653.92 3769.072,653.92 Q3788.656,653.92 3802.288,653.728 Q3815.92,653.536 3825.904,653.344 Q3835.888,653.152 3847.024,652.384 L3847.024,676.192 Q3834.352,678.496 3819.76,689.632 L3734.128,756.448 L3734.128,782.944 Q3760.624,782.944 3782.704,782.752 Q3804.784,782.56 3824.176,782.176 Q3843.568,781.792 3860.272,781.024 Q3876.976,780.256 3892.72,779.104 L3892.72,807.904 Q3876.976,806.752 3860.272,805.984 Q3843.568,805.216 3824.176,804.832 Q3804.784,804.448 3782.704,804.256 Q3760.624,804.064 3734.128,804.064 L3734.128,941.536 Q3734.128,949.216 3731.824,955.168 Q3729.52,961.12 3721.648,965.152 Q3713.776,969.184 3698.992,971.488 Q3684.208,973.792 3659.248,974.176 Q3660.016,964.192 3657.712,956.896 Q3655.408,949.6 3647.728,940.768 Q3668.08,944.224 3680.176,944.8 Q3692.272,945.376 3698.8,943.456 Q3705.328,941.536 3707.248,936.736 Q3709.168,931.936 3709.168,924.256 L3709.168,804.064 Q3654.64,804.064 3614.704,804.64 Q3574.768,805.216 3543.28,807.904 L3543.28,779.104 Q3574.768,781.792 3614.704,782.368 Q3654.64,782.944 3709.168,782.944 z" fill="#383838"/>
      <path d="M4004.464,690.016 Q4002.16,680.416 4000.24,674.08 Q3998.32,667.744 3996.208,662.368 Q3994.096,656.992 3991.216,652 Q3988.336,647.008 3983.728,640.48 L4004.848,629.728 Q4009.072,637.408 4011.952,643.168 Q4014.832,648.928 4017.328,654.688 Q4019.824,660.448 4021.936,666.976 Q4024.048,673.504 4027.12,682.72 z M3974.128,969.568 L3949.936,969.568 Q3951.088,957.28 3951.664,943.456 Q3952.24,929.632 3952.24,920.416 L3952.24,880.096 Q3952.24,865.504 3951.856,854.56 Q3951.472,843.616 3950.704,838.24 Q3965.68,839.392 3981.04,839.968 Q3996.4,840.544 4010.224,840.544 Q4022.512,840.544 4038.448,839.776 Q4054.384,839.008 4067.44,837.856 Q4066.672,844 4066.288,853.6 Q4065.904,863.2 4065.904,880.096 L4065.904,909.28 Q4065.904,913.504 4066.096,919.648 Q4066.288,925.792 4066.48,932.512 Q4066.672,939.232 4067.056,945.76 Q4067.44,952.288 4067.824,957.664 L4044.016,957.664 L4044.016,934.624 L3974.128,934.624 z M4044.016,857.824 L3974.128,857.824 L3974.128,916.96 L4044.016,916.96 z M4071.28,810.976 Q4060.528,810.208 4043.632,809.632 Q4026.736,809.056 4006,809.056 Q3985.264,809.056 3971.44,809.44 Q3957.616,809.824 3946.864,810.976 L3946.864,790.624 Q3957.616,791.776 3971.44,792.16 Q3985.264,792.544 4006,792.544 Q4026.736,792.544 4043.632,791.968 Q4060.528,791.392 4071.28,790.624 z M4071.664,764.896 Q4060.528,763.744 4045.36,763.36 Q4030.192,762.976 4007.92,762.976 Q3986.032,762.976 3972.784,763.168 Q3959.536,763.36 3948.784,764.896 L3948.784,744.544 Q3959.536,746.08 3972.784,746.272 Q3986.032,746.464 4007.92,746.464 Q4030.192,746.464 4045.36,746.08 Q4060.528,745.696 4071.664,744.544 z M4088.944,718.048 Q4083.184,717.28 4074.544,716.704 Q4065.904,716.128 4055.536,715.744 Q4045.168,715.36 4033.648,715.168 Q4022.128,714.976 4010.992,714.976 Q3999.856,714.976 3988.528,715.168 Q3977.2,715.36 3966.832,715.744 Q3956.464,716.128 3947.44,716.704 Q3938.416,717.28 3932.272,718.048 L3932.272,695.008 Q3938.416,695.776 3947.44,696.16 Q3956.464,696.544 3967.024,696.928 Q3977.584,697.312 3988.72,697.504 Q3999.856,697.696 4010.992,697.696 Q4022.128,697.696 4033.648,697.504 Q4045.168,697.312 4055.536,696.928 Q4065.904,696.544 4074.544,696.16 Q4083.184,695.776 4088.944,695.008 z M4189.168,752.608 Q4203.376,752.608 4215.088,752.224 Q4226.8,751.84 4236.592,751.456 Q4246.384,751.072 4255.024,750.496 Q4263.664,749.92 4271.728,749.152 L4271.728,775.264 Q4263.664,774.496 4255.024,773.728 Q4246.384,772.96 4236.592,772.576 Q4226.8,772.192 4215.088,772 Q4203.376,771.808 4189.168,771.808 L4189.168,913.888 Q4189.168,928.096 4189.744,944.032 Q4190.32,959.968 4192.24,983.008 L4163.056,983.008 Q4164.976,959.968 4165.552,944.032 Q4166.128,928.096 4166.128,913.888 L4166.128,771.808 Q4139.248,772.192 4120.048,772.96 Q4100.848,773.728 4085.488,775.264 L4085.488,749.152 Q4101.232,750.304 4120.432,751.264 Q4139.632,752.224 4166.128,752.608 L4166.128,685.024 Q4166.128,663.904 4165.168,650.08 Q4164.208,636.256 4161.52,626.272 Q4170.736,628.576 4177.84,629.536 Q4184.944,630.496 4191.856,629.728 Q4197.232,628.96 4198.192,632.608 Q4199.152,636.256 4194.928,638.944 Q4191.856,640.864 4190.512,648.544 Q4189.168,656.224 4189.168,667.36 z" fill="#383838"/>
      <path d="M4495.216,865.888 L4495.216,840.928 L4441.456,840.928 L4441.456,865.888 z M4517.872,923.488 Q4505.968,921.568 4485.232,920.8 Q4464.496,920.032 4430.704,920.032 Q4408.816,920.032 4394.416,920.224 Q4380.016,920.416 4370.608,920.8 Q4361.2,921.184 4355.056,921.76 Q4348.912,922.336 4343.152,923.488 Q4344.304,915.424 4345.072,901.024 Q4345.84,886.624 4345.84,871.648 Q4345.84,857.44 4345.264,845.344 Q4344.688,833.248 4343.152,823.264 Q4347.76,824.032 4354.096,824.416 Q4360.432,824.8 4370.608,824.992 Q4380.784,825.184 4395.568,825.376 Q4410.352,825.568 4431.472,825.568 Q4466.416,825.568 4487.344,824.992 Q4508.272,824.416 4517.872,823.264 Q4515.952,835.552 4515.568,847.072 Q4515.184,858.592 4515.184,873.184 Q4515.184,887.776 4515.952,901.6 Q4516.72,915.424 4517.872,923.488 z M4365.04,840.928 L4365.04,865.888 L4422.64,865.888 L4422.64,840.928 z M4441.456,904.672 L4495.216,904.672 L4495.216,878.56 L4441.456,878.56 z M4422.64,878.56 L4365.04,878.56 L4365.04,904.672 L4422.64,904.672 z M4532.08,930.016 Q4530.16,935.392 4529.392,939.808 Q4528.624,944.224 4528.624,949.984 Q4499.44,951.904 4470.64,953.632 Q4441.84,955.36 4415.152,957.088 Q4388.464,958.816 4365.04,960.544 Q4341.616,962.272 4323.184,963.424 Q4323.952,956.512 4322.992,951.136 Q4322.032,945.76 4319.728,939.232 Q4330.864,940.384 4347.952,940.768 Q4365.04,941.152 4385.008,940.768 Q4404.976,940.384 4426.48,939.232 Q4447.984,938.08 4467.76,936.736 Q4487.536,935.392 4504.432,933.664 Q4521.328,931.936 4532.08,930.016 z M4647.664,636.64 Q4642.672,639.328 4642.672,647.008 L4642.672,931.936 Q4642.672,943.84 4640.56,951.904 Q4638.448,959.968 4631.92,964.768 Q4625.392,969.568 4612.528,971.488 Q4599.664,973.408 4578.544,973.408 Q4578.928,964.96 4577.392,959.008 Q4575.856,953.056 4568.944,944.224 Q4583.92,947.296 4593.712,947.872 Q4603.504,948.448 4609.264,946.72 Q4615.024,944.992 4617.328,940.576 Q4619.632,936.16 4619.632,929.632 L4619.632,688.48 Q4619.632,668.128 4618.864,650.848 Q4618.096,633.568 4616.944,625.504 Q4631.152,629.344 4644.592,628.192 Q4649.968,627.808 4650.928,631.072 Q4651.888,634.336 4647.664,636.64 z M4582,706.912 Q4577.776,709.6 4577.776,717.28 L4577.776,817.12 Q4577.776,822.88 4577.968,830.56 Q4578.16,838.24 4578.544,846.496 Q4578.928,854.752 4579.312,863.008 Q4579.696,871.264 4580.464,878.176 L4555.12,878.176 Q4555.888,871.264 4556.464,863.008 Q4557.04,854.752 4557.232,846.304 Q4557.424,837.856 4557.616,830.368 Q4557.808,822.88 4557.808,817.12 L4557.808,747.616 Q4557.808,733.024 4557.04,718.624 Q4556.272,704.224 4554.736,696.544 Q4562.416,698.464 4568.176,699.232 Q4573.936,700 4580.08,699.616 Q4585.072,698.848 4585.648,701.536 Q4586.224,704.224 4582,706.912 z M4422.64,741.472 Q4388.464,741.472 4370.992,741.856 Q4353.52,742.24 4346.224,742.624 L4346.224,726.88 Q4350.448,727.648 4356.592,728.224 Q4362.736,728.8 4371.568,728.992 Q4380.4,729.184 4392.88,729.184 Q4405.36,729.184 4422.64,729.184 L4422.64,706.144 Q4399.984,706.144 4383.664,706.336 Q4367.344,706.528 4355.44,706.72 Q4343.536,706.912 4335.28,707.488 Q4327.024,708.064 4320.496,708.832 L4320.496,690.016 Q4327.024,690.784 4335.28,691.36 Q4343.536,691.936 4355.44,692.128 Q4367.344,692.32 4383.664,692.512 Q4399.984,692.704 4422.64,692.704 L4422.64,671.968 Q4405.36,671.968 4392.688,672.16 Q4380.016,672.352 4370.8,672.736 Q4361.584,673.12 4355.632,673.888 Q4349.68,674.656 4345.456,675.424 L4345.456,654.304 Q4350.064,655.072 4355.824,655.648 Q4361.584,656.224 4370.608,656.608 Q4379.632,656.992 4392.112,657.184 Q4404.592,657.376 4422.64,657.376 Q4422.64,647.392 4421.872,640.672 Q4421.104,633.952 4419.184,627.04 Q4428.016,628.192 4433.008,628.384 Q4438,628.576 4445.68,628.192 Q4449.904,627.808 4450.48,629.536 Q4451.056,631.264 4446.832,633.952 Q4444.912,635.872 4443.76,640.48 Q4442.608,645.088 4442.224,657.376 Q4461.04,657.376 4473.328,657.184 Q4485.616,656.992 4493.488,656.8 Q4501.36,656.608 4505.968,656.224 Q4510.576,655.84 4514.032,655.456 Q4513.648,659.296 4513.648,669.664 Q4513.648,680.032 4513.648,692.704 Q4522.48,692.704 4528.624,692.128 Q4534.768,691.552 4541.68,690.016 L4541.68,708.832 Q4534.768,707.296 4528.624,706.72 Q4522.48,706.144 4513.648,706.144 Q4513.648,718.432 4513.648,728.8 Q4513.648,739.168 4514.032,743.008 Q4510.576,742.624 4506.352,742.24 Q4502.128,741.856 4494.256,741.664 Q4486.384,741.472 4474.096,741.472 Q4461.808,741.472 4442.224,741.472 L4442.224,762.592 Q4454.128,762.592 4465.84,762.4 Q4477.552,762.208 4488.304,761.824 Q4499.056,761.44 4507.888,760.864 Q4516.72,760.288 4523.248,759.52 L4523.248,777.568 Q4510.192,776.032 4488.112,775.264 Q4466.032,774.496 4442.224,774.496 L4442.224,794.464 Q4455.28,794.464 4469.68,794.272 Q4484.08,794.08 4497.328,793.888 Q4510.576,793.696 4521.712,793.12 Q4532.848,792.544 4539.376,791.776 L4539.376,809.44 Q4532.08,808.672 4519.024,808.096 Q4505.968,807.52 4490.8,807.136 Q4475.632,806.752 4459.696,806.56 Q4443.76,806.368 4430.704,806.368 Q4417.648,806.368 4401.712,806.56 Q4385.776,806.752 4370.416,807.136 Q4355.056,807.52 4341.808,808.096 Q4328.56,808.672 4321.264,809.44 L4321.264,791.776 Q4328.176,792.544 4340.08,793.12 Q4351.984,793.696 4366,794.08 Q4380.016,794.464 4394.8,794.464 Q4409.584,794.464 4422.64,794.464 L4422.64,774.496 Q4410.352,774.496 4398.064,774.688 Q4385.776,774.88 4374.64,775.264 Q4363.504,775.648 4353.904,776.224 Q4344.304,776.8 4337.392,777.568 L4337.392,758.752 Q4344.304,759.52 4353.712,760.288 Q4363.12,761.056 4374.448,761.44 Q4385.776,761.824 4398.064,762.208 Q4410.352,762.592 4422.64,762.592 z M4492.912,671.968 L4442.224,671.968 L4442.224,692.704 L4492.912,692.704 z M4492.912,728.8 L4492.912,706.144 L4442.224,706.144 L4442.224,729.184 z" fill="#383838"/>
    </g>
  </g>
</svg>
