<?xml version="1.0" encoding="UTF-8"?>
<!DOCTYPE svg PUBLIC "-//W3C//DTD SVG 1.1//EN" "http://www.w3.org/Graphics/SVG/1.1/DTD/svg11.dtd">
<svg version="1.1" xmlns="http://www.w3.org/2000/svg" xmlns:xlink="http://www.w3.org/1999/xlink" x="0" y="0" width="20" height="600" viewBox="0, 0, 20, 600">
  <g id="Yarrow_Stalk">
    <g id="Yarrow_Stalk">
      <g id="Stem">
        <path d="M20,5 L20,596.305 L20,596.305 C19.173,599.467 13.526,599.869 10,600 C4.477,600 0,598.346 0,596.305 L0,5 L20,5 z" fill="#FFB168"/>
        <path d="M20,5 L20,596.305 L20,596.305 C19.173,599.467 13.526,599.869 10,600 C4.477,600 0,598.346 0,596.305 L0,5 L20,5 z M18.5,6.5 L1.5,6.5 L1.5,596.305 C1.5,597.11 5.261,598.5 9.944,598.501 C12.302,598.251 17.24,598.555 18.5,596.023 L18.5,6.5 z" fill="#686868"/>
      </g>
      <g id="Top">
        <path d="M10,10 C4.477,10 0,7.761 0,5 C0,2.239 4.477,0 10,0 C15.523,0 20,2.239 20,5 C20,7.761 15.523,10 10,10 z" fill="#FFB168"/>
        <path d="M10,0 C15.523,0 20,2.239 20,5 C20,7.761 15.523,10 10,10 C4.477,10 0,7.761 0,5 C0,2.239 4.477,0 10,0 z M10,1.5 C5.199,1.5 1.5,3.35 1.5,5 C1.5,6.65 5.199,8.5 10,8.5 C14.801,8.5 18.5,6.65 18.5,5 C18.5,3.35 14.801,1.5 10,1.5 z" fill="#686868"/>
      </g>
    </g>
  </g>
</svg>
