<?xml version="1.0" encoding="UTF-8"?>
<!DOCTYPE svg PUBLIC "-//W3C//DTD SVG 1.1//EN" "http://www.w3.org/Graphics/SVG/1.1/DTD/svg11.dtd">
<svg version="1.1" xmlns="http://www.w3.org/2000/svg" xmlns:xlink="http://www.w3.org/1999/xlink" x="0" y="0" width="20" height="605" viewBox="0, 0, 20, 605">
  <g id="Yarrow_Stalk">
    <g id="Yarrow_Stalk">
      <g id="Stem">
        <path d="M20,5 L20,601.273 L20,601.273 C19.173,604.463 13.526,604.868 10,605 C4.477,605 0,603.332 0,601.273 L0,5 L20,5 z" fill="#FFB168"/>
        <path d="M20,5 L20,601.273 L20,601.273 C19.173,604.463 13.526,604.868 10,605 C4.477,605 0,603.332 0,601.273 L0,5 L20,5 z M19,6 L1,6 L1,601.273 C1,602.51 4.998,604 9.962,604.001 C12.672,603.744 17.633,604.053 19,601.092 L19,6 z" fill="#686868"/>
      </g>
      <g id="Top">
        <path d="M10,10 C4.477,10 0,7.761 0,5 C0,2.239 4.477,0 10,0 C15.523,0 20,2.239 20,5 C20,7.761 15.523,10 10,10 z" fill="#FFB168"/>
        <path d="M10,0 C15.523,0 20,2.239 20,5 C20,7.761 15.523,10 10,10 C4.477,10 0,7.761 0,5 C0,2.239 4.477,0 10,0 z M10,1 C4.959,1 1,2.979 1,5 C1,7.021 4.959,9 10,9 C15.041,9 19,7.021 19,5 C19,2.979 15.041,1 10,1 z" fill="#686868"/>
      </g>
    </g>
  </g>
</svg>
