<?xml version="1.0" encoding="UTF-8"?>
<!DOCTYPE svg PUBLIC "-//W3C//DTD SVG 1.1//EN" "http://www.w3.org/Graphics/SVG/1.1/DTD/svg11.dtd">
<svg version="1.1" xmlns="http://www.w3.org/2000/svg" xmlns:xlink="http://www.w3.org/1999/xlink" x="0" y="0" width="7" height="211.75" viewBox="0, 0, 7, 211.75">
  <g id="Yarrow_Stalk_Backup">
    <g id="Yarrow_Stalk">
      <g id="Stem">
        <path d="M7,1.75 L7,210.446 L7,210.446 C6.71,211.562 4.734,211.704 3.5,211.75 C1.567,211.75 0,211.166 0,210.446 L0,1.75 L7,1.75 z" fill="#FFB168"/>
        <path d="M7,1.75 L7,210.446 L7,210.446 C6.71,211.562 4.734,211.704 3.5,211.75 C1.567,211.75 0,211.166 0,210.446 L0,1.75 L7,1.75 z M6.65,2.1 L0.35,2.1 L0.35,210.446 C0.35,210.879 1.749,211.4 3.487,211.4 C5.379,211.329 6.485,211.037 6.65,210.446 L6.65,2.1 z" fill="#686868"/>
      </g>
      <g id="Top">
        <path d="M3.5,3.5 C1.567,3.5 -0,2.717 -0,1.75 C-0,0.784 1.567,0 3.5,0 C5.433,0 7,0.784 7,1.75 C7,2.717 5.433,3.5 3.5,3.5 z" fill="#FFB168"/>
        <path d="M3.5,0 C5.433,0 7,0.784 7,1.75 C7,2.717 5.433,3.5 3.5,3.5 C1.567,3.5 -0,2.717 -0,1.75 C-0,0.784 1.567,0 3.5,0 z M3.5,0.35 C1.736,0.35 0.35,1.043 0.35,1.75 C0.35,2.457 1.736,3.15 3.5,3.15 C5.264,3.15 6.65,2.457 6.65,1.75 C6.65,1.043 5.264,0.35 3.5,0.35 z" fill="#686868"/>
      </g>
    </g>
  </g>
  <g id="Yarrow_Stalk">
    <g id="Yarrow_Stalk">
      <g id="Stem">
        <path d="M7,1.75 L7,210.446 L7,210.446 C6.71,211.562 4.734,211.704 3.5,211.75 C1.567,211.75 0,211.166 0,210.446 L0,1.75 L7,1.75 z" fill="#FFB168"/>
        <path d="M7,1.75 L7,210.446 L7,210.446 C6.71,211.562 4.734,211.704 3.5,211.75 C1.567,211.75 0,211.166 0,210.446 L0,1.75 L7,1.75 z M6.65,2.1 L0.35,2.1 L0.35,210.446 C0.35,210.879 1.749,211.4 3.487,211.4 C5.379,211.329 6.485,211.037 6.65,210.446 L6.65,2.1 z" fill="#686868"/>
      </g>
      <g id="Top">
        <path d="M3.5,3.5 C1.567,3.5 -0,2.717 -0,1.75 C-0,0.784 1.567,0 3.5,0 C5.433,0 7,0.784 7,1.75 C7,2.717 5.433,3.5 3.5,3.5 z" fill="#FFB168"/>
        <path d="M3.5,0 C5.433,0 7,0.784 7,1.75 C7,2.717 5.433,3.5 3.5,3.5 C1.567,3.5 -0,2.717 -0,1.75 C-0,0.784 1.567,0 3.5,0 z M3.5,0.35 C1.736,0.35 0.35,1.043 0.35,1.75 C0.35,2.457 1.736,3.15 3.5,3.15 C5.264,3.15 6.65,2.457 6.65,1.75 C6.65,1.043 5.264,0.35 3.5,0.35 z" fill="#686868"/>
      </g>
    </g>
  </g>
</svg>
