<?xml version="1.0" encoding="UTF-8"?>
<!DOCTYPE svg PUBLIC "-//W3C//DTD SVG 1.1//EN" "http://www.w3.org/Graphics/SVG/1.1/DTD/svg11.dtd">
<svg version="1.1" xmlns="http://www.w3.org/2000/svg" xmlns:xlink="http://www.w3.org/1999/xlink" x="0" y="0" width="800" height="1150" viewBox="0, 0, 800, 1150">
  <g id="Layer_1">
    <path d="M-0,210 L800,210 L800,310 L-0,310 L-0,210 z" fill="#1A1110" id="Line"/>
    <path d="M400,160 C455.228,160 500,204.772 500,260 C500,315.228 455.228,360 400,360 C344.772,360 300,315.228 300,260 C300,204.772 344.772,160 400,160 z M400,210 C372.386,210 350,232.386 350,260 C350,287.614 372.386,310 400,310 C427.614,310 450,287.614 450,260 C450,232.386 427.614,210 400,210 z" fill="#ED2939" id="Circle"/>
    <g id="Old_Yin">
      <g id="Changing_Yin">
        <g id="Line">
          <path d="M0,408.388 L300,408.388 L300,508.388 L0,508.388 L0,408.388 z" fill="#1A1110" id="Line"/>
          <path d="M500,408.388 L800,408.388 L800,508.388 L500,508.388 L500,408.388 z" fill="#1A1110" id="Line"/>
        </g>
        <g id="Cross">
          <path d="M346.967,370 L488.388,511.421 L453.033,546.777 L311.612,405.355 L346.967,370 z" fill="#ED2939" id="Downward_Sloping_Line"/>
          <path d="M488.388,405.355 L346.967,546.777 L311.612,511.421 L453.033,370 L488.388,405.355 z" fill="#ED2939" id="Upward_Sloping_Line"/>
        </g>
      </g>
    </g>
    <path d="M0,0 L800,0 L800,100 L0,100 L0,0 z" fill="#000000" id="Stable_Yang"/>
    <g id="Stable_Yin">
      <path d="M0,630 L300,630 L300,730 L0,730 L0,630 z" fill="#1A1110" id="Line"/>
      <path d="M500,630 L800,630 L800,730 L500,730 L500,630 z" fill="#1A1110" id="Line"/>
    </g>
    <path d="M0,1050 L800,1050 L800,1150 L0,1150 L0,1050 z" fill="#000000" id="Stable_Yang"/>
    <path d="M-0,840 L800,840 L800,940 L-0,940 L-0,840 z" fill="#1A1110" id="Line"/>
    <path d="M400,790 C455.228,790 500,834.772 500,890 C500,945.228 455.228,990 400,990 C344.772,990 300,945.228 300,890 C300,834.772 344.772,790 400,790 z M400,840 C372.386,840 350,862.386 350,890 C350,917.614 372.386,940 400,940 C427.614,940 450,917.614 450,890 C450,862.386 427.614,840 400,840 z" fill="#ED2939" id="Circle"/>
  </g>
</svg>
